PathFileType	4	(X/Y/Z)	45_1_52_p1_0-239.trc
DataRate	CameraRate	NumFrames	NumMarkers	Units	OrigDataRate	OrigDataStartFrame	OrigNumFrames
47.0	47.0	7	27	m	47.0	90	240
Frame#	Time	RHip			RKnee			RAnkle			RBigToe			RSmallToe			RHeel			LHip			LKnee			LAnkle			LBigToe			LSmallToe			LHeel			Neck			Head			Nose			RShoulder			RElbow			RWrist			RThumb			RIndex			RPinky			LShoulder			LElbow			LWrist			LThumb			LIndex			LPinky			
		X1	Y1	Z1	X2	Y2	Z2	X3	Y3	Z3	X4	Y4	Z4	X5	Y5	Z5	X6	Y6	Z6	X7	Y7	Z7	X8	Y8	Z8	X9	Y9	Z9	X10	Y10	Z10	X11	Y11	Z11	X12	Y12	Z12	X13	Y13	Z13	X14	Y14	Z14	X15	Y15	Z15	X16	Y16	Z16	X17	Y17	Z17	X18	Y18	Z18	X19	Y19	Z19	X20	Y20	Z20	X21	Y21	Z21	X22	Y22	Z22	X23	Y23	Z23	X24	Y24	Z24	X25	Y25	Z25	X26	Y26	Z26	X27	Y27	Z27	
90	1.9148936170212767	0.5542258152449264	0.4393227996832737	0.8993189229943094	0.5798345095190545	0.5999279404589642	1.3167655954862545	0.5987376995675372	0.7944877595176294	1.667833687528666	0.5893399988921686	0.6869285860915368	1.747804656627936	0.6530337309379786	0.708915663821771	1.742840591567334	0.5849199171287123	0.9306945025895275	1.7155278505980844	0.3634389487954923	0.441604751309441	0.9297158186713178	0.3917325921870772	0.6215382484283196	1.328605587617741	0.4135343207938894	0.8365476430792159	1.6990551665264106	0.43273370140701095	0.6756617193882858	1.7599524915548153	0.37905993646552616	0.7194111511106195	1.7641001839951007	0.4264165397287895	0.9164729168821142	1.749465620152981	0.42433285639599067	0.2786877081975682	0.46248153583673557	0.4139067602167769	0.10391295711988036	0.2512384553582725	0.43701093673339136	0.08512418072853943	0.4064534243691863	0.5726904160524678	0.312051051155691	0.5141531320829511	0.5898834199140052	0.36494249326100875	0.7184439451654505	0.5143110916015196	0.28729299769793376	0.9169929372335007	0.4783678647933989	0.3782318718706448	1.0321971272993486	0.4646388704744503	0.37428542336375836	1.0279282877395899	0.4521731084619453	0.37533459229289556	1.0207953997158952	0.2596598248080011	0.27447079447702877	0.5289892737491597	0.28403045966869006	0.32642162390670065	0.7543891342264216	0.42291272509969335	0.2994556959452385	0.9336339063322382	0.4905974541833107	0.3610364692990231	1.008939987111469	0.4919284227935156	0.3775492197179822	1.0366518152464184	0.4629337235768143	0.37518150387362653	1.0344752982726304
91	1.9361702127659575	0.5573659485811057	0.452161733818354	0.8985526709299737	0.5790517134194278	0.6297725948416312	1.3197122169266398	0.5987651498284893	0.7948948352481653	1.6679692787463014	0.5899643506423292	0.6863147057212475	1.7518242550682754	0.6526341073052452	0.7081455886860621	1.7429941473165416	0.584279782072054	0.9329468834365171	1.720636026120652	0.36369237338583116	0.44008154781579123	0.9257511046408959	0.39170332242315514	0.6220772676632647	1.328944840147701	0.41479965543884945	0.8404375698023923	1.7042518857445121	0.43743365132338524	0.6783758839596813	1.7599307852424053	0.37919197867214455	0.7191156445141251	1.764131166388377	0.4263644674783113	0.9164539550828287	1.7495791614409086	0.42096722292463384	0.2652310327697252	0.4617920571018041	0.40895118503901423	0.11464481545668607	0.2450882697386242	0.43650518223251666	0.08495754924395518	0.40310432051324724	0.5714493520865268	0.30967101041569106	0.5070779455753998	0.5942551295159857	0.365351895800238	0.7174921765749166	0.5137024644101035	0.28520819507311745	0.9140393351818489	0.47771374664710237	0.37929244785055133	1.0314113819735375	0.47128642942686083	0.3775268175329095	1.0323792354314765	0.46080281296374165	0.36434084711548326	1.0196578437950048	0.259565577042906	0.2747180523351801	0.5289169354945151	0.28839160501106614	0.32645180008944163	0.7508526916671632	0.42682451731866833	0.30103923295447116	0.9331463096281685	0.48978337391023	0.3609071480002037	1.0058953217768525	0.49140098303933644	0.37771532562900006	1.0363466895293179	0.46594059684125666	0.3753952689338623	1.0341704562452818
92	1.9574468085106382	0.5583737344634776	0.45391029989945075	0.8984293395396762	0.5837563262254102	0.614562429115827	1.3176124446926605	0.594489254579756	0.8130166318538039	1.6720928600316995	0.5892518086204989	0.6864073455187519	1.7478553525910203	0.6529042028078863	0.7092359635520297	1.74300578540649	0.5834751133987156	0.93322038404468	1.7163160082968862	0.3637215234494405	0.4401555330557068	0.9258695671592303	0.3969280940876534	0.6269332022323868	1.3332569200585935	0.4141064380068717	0.8421821336374579	1.7088178711665873	0.4375251553910741	0.6786133807727258	1.7600374255524078	0.3793035760988885	0.7191672821435808	1.7641953162125608	0.42344310822563097	0.9009238018703672	1.7467093793265145	0.4204122904525333	0.2648242767907926	0.45825381096036205	0.40465771065291106	0.12596495347348943	0.24237148184460613	0.4365414318429013	0.08506877216233394	0.4030202079108942	0.5674292540126133	0.3226906814403335	0.5052498405611138	0.5942093263509686	0.36553931823653696	0.717402058178617	0.517702542573756	0.2875938719956616	0.9135158140857406	0.47791492727701157	0.3793261083094355	1.026564151015271	0.46451548141504345	0.3744006108145987	1.0273959319993926	0.46092684437385323	0.36414678306673537	1.0198380859863883	0.25955040618257597	0.2745724070922042	0.5289014611898508	0.2882175557828922	0.32688150623163653	0.750642441837373	0.426839284490456	0.3010790381909161	0.9333233979908001	0.48973303887880165	0.3611187330092223	1.0061339937715645	0.4943024812526604	0.39019383422599285	1.035927028947889	0.4659336367151128	0.3756110597375442	1.0340350308550768
93	1.9787234042553192	0.5572570128768215	0.4522737372535671	0.8986832850285832	0.583622771809441	0.6140639388974725	1.3176493416287551	0.59877785280225	0.794709179138203	1.6678946150996374	0.5906045382363884	0.6892306652981112	1.7517692883847389	0.652788727265107	0.7082536605005453	1.7429098230834055	0.5842834769550461	0.9327359288423167	1.7205773134894742	0.3636813435095458	0.44017233068283124	0.9259403782642115	0.39166554481727156	0.6221437822074584	1.3290500581594349	0.4148380271964944	0.84025953935833	1.7041578221047338	0.4375112902612651	0.6783403673969195	1.7599274080784517	0.37934779817108943	0.7190989670905079	1.7641419686299413	0.4312839990427449	0.9204358069995349	1.7496380021018314	0.42040462670463086	0.26472346464670865	0.45826759782856125	0.40518825084782983	0.1267574811606445	0.24579940392039623	0.439111175814535	0.09476959133085872	0.40045766702902574	0.5673865856319523	0.3226180337965876	0.5052257371077067	0.5941800545644822	0.3655046387337354	0.7173977279741964	0.517705644915541	0.28763389240713066	0.913513135331221	0.478730535573526	0.37949172869959624	1.026912360014368	0.47144353816873796	0.377923323591357	1.0322606047289318	0.46094382256656774	0.3645245037544527	1.0198792911258616	0.25953422269983795	0.2745865218656635	0.5289474614550842	0.2882215035707155	0.32683155057612334	0.7507200282535047	0.42681191203098917	0.3011282300418877	0.9332986174730108	0.4904458330224879	0.3615002538958398	1.0087741506590733	0.4945112303204659	0.3904055859143637	1.0360546274059264	0.4659157851344999	0.37568316567943427	1.0341228637251252
94	2.0	0.558162954548288	0.4546673083426938	0.9023111257517148	0.5792114737716446	0.6303249354785067	1.3197874579131998	0.5988500033002807	0.7949587734077838	1.6678968527233673	0.5934907148332674	0.7000149956369326	1.7544501659294103	0.6481213402323079	0.7066075538056373	1.7431535495613397	0.5849052174062291	0.9309296504669844	1.7153816495543932	0.36071637049580835	0.4420844093964939	0.9346030711801574	0.3983948260306716	0.6093517305988441	1.3314378716907898	0.4147623917229125	0.8403864877258368	1.7041224125421237	0.43746047260466825	0.67876887804544	1.7600172086477692	0.3791059527527076	0.719790592384137	1.7642997336881396	0.4282171963640737	0.9048124795997585	1.7468121000934562	0.4209355010610586	0.26508246467245644	0.4618086264023985	0.40437270380234935	0.12571089585178188	0.239528613336627	0.43910190264145277	0.09482452560909084	0.4004501755862542	0.566636026435013	0.3203328471359447	0.5019348730503295	0.5942543357326638	0.36547421297648414	0.7173486280727014	0.5177521084597348	0.28763279135959147	0.9135597462389822	0.47910900961031105	0.3788961523847191	1.027290944524962	0.4715821095557858	0.37773647624067774	1.032461150924327	0.4612376808571051	0.36518100108050927	1.0200996514125364	0.25957008802886167	0.2741912490662522	0.5289613822881318	0.2881863973007799	0.3269041270077277	0.7506073388411653	0.4268518991335093	0.3012643830724248	0.9332878245672178	0.4904393029350615	0.361642035168638	1.0086322739698528	0.49449630042657755	0.39036272090934004	1.0358870999035492	0.4627606206922235	0.37526456248535583	1.0341362505602771
95	2.021276595744681	0.557313988459289	0.4521793332576189	0.8986675295379849	0.5792012818197464	0.630464580761337	1.3198782306368915	0.5988963588566957	0.7948790782271057	1.6679272802905276	0.593547802769734	0.6997739338285335	1.754431580316258	0.6526508666571184	0.7084623369825687	1.7430565524610355	0.5842703187218282	0.9326418704389702	1.7204631112651991	0.3634595533751375	0.4413396104889619	0.9299324713670579	0.39178265782057464	0.6219272917815064	1.3290633321356673	0.4128358579204422	0.8384369324713241	1.7037936740632953	0.44005103725613753	0.6935386440494953	1.7630708264760553	0.37928556371290506	0.7191911684917016	1.7641894827576705	0.42820882739903215	0.9039475922813524	1.7465886027797508	0.4203213693736117	0.2645768825814613	0.45825265490203676	0.4003346032817466	0.1246913618510231	0.24026309729071996	0.4385899975602514	0.09306368197566749	0.3977824170538641	0.5666579816565712	0.3203203069147567	0.5019499151682949	0.5942297959946798	0.3655646611466614	0.7173794127649371	0.5177654190776884	0.28763186962486864	0.9135506028501875	0.47963227145439735	0.378492365901072	1.0277504584336	0.47248727195804185	0.3779948507046889	1.0350803254797112	0.4608377299903355	0.3641568723477192	1.0196467395388622	0.25940908023813203	0.27408566181810384	0.5290262373172882	0.2882463911169123	0.32656690593066906	0.7508342655397474	0.42685197028369626	0.30113991687821356	0.9333188556518524	0.4907953362570768	0.36145414610822096	1.0086607488596524	0.49925011399517727	0.3769996665221148	1.035335790437536	0.4627195353281926	0.3748028615653951	1.0343451199227143
96	2.0425531914893615	0.5632221470875571	0.44094567048596217	0.9061050248665119	0.5751542956300972	0.6154183441730138	1.319093165832011	0.602476883086183	0.8104415432056108	1.6704507620216889	0.5973658814350994	0.7037857330061066	1.7506205548539107	0.6491475139152691	0.7264748552319537	1.7474188745789758	0.5882400862795891	0.9493889099014297	1.7232813635986737	0.35954973144372265	0.4393968276947072	0.9305528888441815	0.3989005107878392	0.6091224265409267	1.3353096912934377	0.414863488283098	0.840301902603866	1.7041770531153835	0.44007381856243	0.6932608590792773	1.7629355651805143	0.37932113523428107	0.7198896670745675	1.764311907700873	0.4314186339164516	0.9205326694388677	1.7495331218983363	0.42087743342183953	0.26519561514548673	0.4617828023325087	0.4001352327123515	0.1247789014425552	0.24018271816697284	0.4390684128660298	0.09492577917737093	0.40053776352139714	0.5633703691716124	0.32153941417343834	0.5059575953928765	0.5976633222609388	0.37797640464757665	0.7156380255476631	0.5177618151511837	0.28762065883056315	0.913519335191192	0.4793521347594333	0.37866747067901946	1.0274867300746156	0.46452749652521896	0.37379907787091665	1.0275349175121424	0.46087752816379995	0.3650894744652332	1.0199846658010805	0.25963636363608594	0.27358957187172384	0.5290381351206189	0.28830870156403055	0.32660630352641057	0.7506696163482095	0.4268981025157667	0.3010169496273305	0.9331543855800635	0.49059674159201666	0.360747862740816	1.0088452940870685	0.4913067035658022	0.3763090093693211	1.0364287036146236	0.46252712030129706	0.37477975762169025	1.0340645372278305
